<svg id="visual" viewBox="0 0 900 600" width="900" height="600" xmlns="http://www.w3.org/2000/svg" xmlns:xlink="http://www.w3.org/1999/xlink" version="1.1"><rect x="0" y="0" width="900" height="600" fill="#001220"></rect><defs><linearGradient id="grad1_0" x1="33.3%" y1="100%" x2="100%" y2="0%"><stop offset="20%" stop-color="#001220" stop-opacity="1"></stop><stop offset="80%" stop-color="#001220" stop-opacity="1"></stop></linearGradient></defs><defs><linearGradient id="grad2_0" x1="0%" y1="100%" x2="66.7%" y2="0%"><stop offset="20%" stop-color="#001220" stop-opacity="1"></stop><stop offset="80%" stop-color="#001220" stop-opacity="1"></stop></linearGradient></defs><g transform="translate(900, 600)"><path d="M-243.4 0C-221.3 -10.6 -199.1 -21.3 -195 -34.4C-190.8 -47.5 -204.6 -63.1 -202 -73.5C-199.4 -84 -180.4 -89.2 -170.6 -98.5C-160.8 -107.8 -160.3 -121 -153.2 -128.6C-146.1 -136.1 -132.6 -138.1 -127.3 -151.7C-122 -165.3 -125 -190.5 -119 -206.1C-113 -221.7 -98 -227.7 -83.2 -228.7C-68.5 -229.7 -53.9 -225.9 -40.1 -227.5C-26.3 -229.1 -13.1 -236.2 0 -243.4L0 0Z" fill="#FBAE3C"></path></g><g transform="translate(0, 0)"><path d="M243.4 0C227.2 11.5 211.1 23 208.8 36.8C206.5 50.6 218.1 66.6 218 79.3C218 92.1 206.3 101.6 201.8 116.5C197.3 131.4 199.9 151.8 186.4 156.4C173 161.1 143.4 150 127.9 152.4C112.4 154.9 110.9 170.9 103 178.4C95.1 185.9 80.8 184.8 69.4 190.8C58.1 196.7 49.8 209.7 38.7 219.6C27.7 229.6 13.8 236.5 0 243.4L0 0Z" fill="#FBAE3C"></path></g></svg>