<svg xmlns="http://www.w3.org/2000/svg" data-name="Layer 3" viewBox="0 0 64 64" id="hobbies"><path d="M52,19H48a8.957,8.957,0,0,0-5.9,2.222,19.788,19.788,0,0,0-8.56,3.452L33,25.057V22.414l2.707-2.707a5.229,5.229,0,0,0,1.406-2.589,5.212,5.212,0,0,0,2.594-1.411l3-3a1,1,0,0,0,0-1.414l-3-3a5.218,5.218,0,0,0-2.6-1.406,5.2,5.2,0,0,0-1.4-2.594l-3-3a1,1,0,0,0-1.414,0l-3,3a5.229,5.229,0,0,0-1.406,2.589,5.208,5.208,0,0,0-2.594,1.411l-3,3a1,1,0,0,0,0,1.414l3,3a5.226,5.226,0,0,0,2.6,1.406,5.2,5.2,0,0,0,1.4,2.594L31,22.414v2.643l-.537-.383A19.616,19.616,0,0,0,19,21a1,1,0,0,0-.707,1.707l1.05,1.05A17.756,17.756,0,0,0,31,28.951V34H16a1,1,0,0,0-1,1v6a1,1,0,0,0,1,1h1.133l.807,5.647-5.611,5.611a4.535,4.535,0,0,0,6.414,6.414l.8-.8.467,3.271A1,1,0,0,0,21,63H43a1,1,0,0,0,.99-.858L46.867,42H48a1,1,0,0,0,1-1V35a1,1,0,0,0-1-1H42.735a8.205,8.205,0,0,0,.2-1H44a9.01,9.01,0,0,0,9-9V20A1,1,0,0,0,52,19ZM21.686,23.2A17.609,17.609,0,0,1,29.3,26.3l.827.591A15.75,15.75,0,0,1,21.686,23.2ZM30.5,45.086,26.914,41.5l8.672-8.672A6.193,6.193,0,0,1,39.6,31.019L40.981,32.4a6.2,6.2,0,0,1-1.809,4.019Zm-3.5,3.5L23.414,45,25.5,42.914,29.086,46.5Zm6-16V28.968a17.933,17.933,0,0,0,6.022-1.412C39.015,27.7,39,27.85,39,28v1.06a8.172,8.172,0,0,0-4.828,2.354ZM40.1,23.7a8.927,8.927,0,0,0-.615,1.42,15.93,15.93,0,0,1-5.6,1.761L34.7,26.3A17.784,17.784,0,0,1,40.1,23.7ZM40.586,12l-2.293,2.293a3.327,3.327,0,0,1-3.6.648,3.756,3.756,0,0,0,1.252-3.521,5.205,5.205,0,0,0,1.2-2.441,3.238,3.238,0,0,1,1.147.728ZM32,10a2,2,0,1,1-2,2A2,2,0,0,1,32,10Zm0-6.586,2.293,2.293a3.243,3.243,0,0,1,.658,3.615A3.98,3.98,0,0,0,32,8a4.071,4.071,0,0,0-.578.058,5.174,5.174,0,0,0-2.443-1.2,3.225,3.225,0,0,1,.728-1.146ZM23.414,12l2.293-2.293a3.325,3.325,0,0,1,3.6-.648,3.756,3.756,0,0,0-1.252,3.521,5.205,5.205,0,0,0-1.205,2.441,3.238,3.238,0,0,1-1.147-.728Zm5.635,2.678A3.98,3.98,0,0,0,32,16a4.071,4.071,0,0,0,.578-.058,5.183,5.183,0,0,0,2.443,1.2,3.239,3.239,0,0,1-.728,1.146L32,20.586l-2.293-2.293A3.243,3.243,0,0,1,29.049,14.678ZM17,36H29.586l-4,4H17Zm2.153,6h4.433l-3.879,3.879ZM17.329,58.258a2.536,2.536,0,1,1-3.586-3.586L22,46.414,25.586,50ZM42.133,61H21.867l-.556-3.9L36.414,42h8.433ZM47,36v4H38.414l2.172-2.172A8.244,8.244,0,0,0,41.939,36Zm4-12a7.008,7.008,0,0,1-7,7H42.414L41,29.586V28a7.008,7.008,0,0,1,7-7h3Z"></path></svg>