<svg id="visual" viewBox="0 0 900 600" width="900" height="600" xmlns="http://www.w3.org/2000/svg" xmlns:xlink="http://www.w3.org/1999/xlink" version="1.1"><rect x="0" y="0" width="900" height="600" fill="#002233"></rect><path d="M0 464L10 465.8C20 467.7 40 471.3 60 475.3C80 479.3 100 483.7 120 481.2C140 478.7 160 469.3 180 464C200 458.7 220 457.3 240 457.2C260 457 280 458 300 460.7C320 463.3 340 467.7 360 469.8C380 472 400 472 420 474C440 476 460 480 480 482.2C500 484.3 520 484.7 540 481.7C560 478.7 580 472.3 600 469.5C620 466.7 640 467.3 660 470.8C680 474.3 700 480.7 720 485C740 489.3 760 491.7 780 493.8C800 496 820 498 840 499.2C860 500.3 880 500.7 890 500.8L900 501L900 601L890 601C880 601 860 601 840 601C820 601 800 601 780 601C760 601 740 601 720 601C700 601 680 601 660 601C640 601 620 601 600 601C580 601 560 601 540 601C520 601 500 601 480 601C460 601 440 601 420 601C400 601 380 601 360 601C340 601 320 601 300 601C280 601 260 601 240 601C220 601 200 601 180 601C160 601 140 601 120 601C100 601 80 601 60 601C40 601 20 601 10 601L0 601Z" fill="#0066FF" stroke-linecap="round" stroke-linejoin="miter"></path></svg>